<?xml version="1.0" encoding="UTF-8" standalone="no"?>
<!DOCTYPE svg PUBLIC "-//W3C//DTD SVG 1.1//EN" "http://www.w3.org/Graphics/SVG/1.1/DTD/svg11.dtd">
<svg width="100%" height="100%" viewBox="0 0 709 194" version="1.1" xmlns="http://www.w3.org/2000/svg" xmlns:xlink="http://www.w3.org/1999/xlink" xml:space="preserve" xmlns:serif="http://www.serif.com/" style="fill-rule:evenodd;clip-rule:evenodd;stroke-linejoin:round;stroke-miterlimit:2;">
    <g transform="matrix(1,0,0,1,-379,-22.188458)">
        <g transform="matrix(1,0,0,1,451,24)">
            <path d="M0,0L32,0C37.28,12.54 42.56,25.08 48,38C48.33,25.46 48.66,12.92 49,0L81,0C87.75,14.625 87.75,14.625 89.992,19.957C90.424,20.98 90.856,22.004 91.3,23.058C91.82,24.297 92.34,25.536 92.875,26.812C95.412,32.845 95.412,32.845 98,39C98.33,26.13 98.66,13.26 99,0L221,0L221,33L241,33L241,0L272,0C272.33,27.72 272.66,55.44 273,84C274.577,78.02 276.153,72.04 277.777,65.879C278.775,62.101 279.773,58.323 280.771,54.545C282.358,48.543 283.944,42.54 285.525,36.537C286.799,31.699 288.077,26.862 289.357,22.026C289.846,20.177 290.334,18.327 290.82,16.477C291.499,13.895 292.183,11.314 292.867,8.733C293.069,7.96 293.271,7.188 293.479,6.392C294.886,1.114 294.886,1.114 296,0C297.708,-0.087 299.419,-0.107 301.129,-0.098C302.681,-0.093 302.681,-0.093 304.264,-0.088C305.352,-0.08 306.441,-0.071 307.562,-0.062C309.201,-0.056 309.201,-0.056 310.873,-0.049C313.582,-0.037 316.291,-0.021 319,0C321.53,7.283 323.576,14.64 325.539,22.094C326.208,24.612 326.878,27.13 327.547,29.648C328.417,32.931 329.285,36.214 330.153,39.496C331.34,43.988 332.533,48.479 333.727,52.969C334.04,54.16 334.354,55.352 334.677,56.579C334.967,57.672 335.258,58.764 335.557,59.889C335.812,60.854 336.068,61.82 336.33,62.814C336.8,64.956 336.8,64.956 338,66C338.211,65.188 338.422,64.376 338.639,63.539C340.622,55.901 342.608,48.263 344.598,40.627C345.621,36.701 346.643,32.774 347.661,28.846C348.644,25.059 349.63,21.273 350.618,17.487C350.995,16.039 351.371,14.592 351.746,13.143C352.269,11.122 352.797,9.101 353.326,7.08C353.776,5.352 353.776,5.352 354.234,3.588C355,1 355,1 356,0C357.708,-0.087 359.419,-0.107 361.129,-0.098C362.681,-0.093 362.681,-0.093 364.264,-0.088C365.352,-0.08 366.441,-0.071 367.562,-0.062C369.201,-0.056 369.201,-0.056 370.873,-0.049C373.582,-0.037 376.291,-0.021 379,0C381.084,5.35 382.826,10.65 384.268,16.204C384.474,16.981 384.679,17.758 384.89,18.558C385.56,21.096 386.224,23.636 386.887,26.176C387.353,27.951 387.82,29.726 388.286,31.501C389.26,35.206 390.23,38.912 391.198,42.618C392.441,47.372 393.69,52.124 394.941,56.876C395.904,60.534 396.863,64.193 397.821,67.852C398.28,69.606 398.741,71.359 399.203,73.112C399.845,75.554 400.483,77.998 401.12,80.443C401.312,81.167 401.503,81.892 401.701,82.639C402.446,85.516 403,88.013 403,91L383,91C382.34,88.236 381.68,85.472 381,82.625C380.791,81.756 380.582,80.886 380.367,79.991C380.205,79.305 380.042,78.62 379.875,77.914C379.707,77.212 379.54,76.511 379.367,75.788C379,74 379,74 379,72L356,72C355.567,74.753 355.567,74.753 355.125,77.562C354.388,82.25 353.322,86.372 352,91L323,91C322.34,88.236 321.68,85.472 321,82.625C320.791,81.756 320.582,80.886 320.367,79.991C320.205,79.305 320.042,78.62 319.875,77.914C319.707,77.212 319.54,76.511 319.367,75.788C319,74 319,74 319,72L296,72C295.567,74.753 295.567,74.753 295.125,77.562C294.388,82.25 293.322,86.372 292,91L241,91L241,55L221,55L221,91L190,91L190,22L170,22L170,91L139,91L139,22L119,22L119,91L87,91C85.288,87.123 83.576,83.245 81.812,79.25C81.284,78.054 80.755,76.858 80.21,75.626C79.776,74.641 79.342,73.656 78.895,72.641C78.46,71.656 78.025,70.672 77.577,69.657C75.335,64.459 73.177,59.225 71,54C70.67,66.21 70.34,78.42 70,91L38,91C34.737,84.474 31.647,78.052 28.848,71.34C28.47,70.443 28.093,69.547 27.705,68.624C26.487,65.73 25.275,62.834 24.062,59.938C22.796,56.92 21.528,53.903 20.261,50.886C19.41,48.86 18.559,46.835 17.709,44.81C15.044,38.465 12.354,32.132 9.641,25.809C8.983,24.273 8.325,22.737 7.668,21.201C6.748,19.053 5.826,16.906 4.898,14.761C4.059,12.819 3.226,10.875 2.395,8.93C1.696,7.309 1.696,7.309 0.984,5.656C0,3 0,3 0,0ZM307,19C305.996,23.464 305,27.93 304.009,32.397C303.672,33.916 303.332,35.433 302.991,36.951C302.499,39.137 302.015,41.324 301.531,43.512C301.302,44.523 301.302,44.523 301.067,45.555C300.268,49.207 300,52.204 300,56L315,56C314.382,47.752 312.795,39.926 310.938,31.875C310.656,30.632 310.374,29.39 310.084,28.109C309.395,25.072 308.7,22.035 308,19L307,19ZM367,19C365.998,23.625 365.001,28.252 364.009,32.879C363.671,34.453 363.332,36.026 362.991,37.599C362.5,39.862 362.015,42.126 361.531,44.391C361.378,45.092 361.225,45.793 361.067,46.515C360.372,49.791 360,52.629 360,56L376,56C373.36,43.79 370.72,31.58 368,19L367,19Z" style="fill:rgb(0,84,159);fill-rule:nonzero;"/>
        </g>
        <g transform="matrix(1,0,0,1,694,122)">
            <path d="M0,0L40,0C43.96,20.46 47.92,40.92 52,62C55.906,42.719 55.906,42.719 59.808,23.436C60.298,21.024 60.788,18.612 61.277,16.199C61.531,14.941 61.785,13.682 62.047,12.385C62.291,11.188 62.534,9.99 62.785,8.757C63.101,7.194 63.101,7.194 63.424,5.601C64,3 64,3 65,0L137,0L137,16L105,16L105,36L135,36L135,52L105,52L105,75L138,75L138,91L85,91C84.67,63.28 84.34,35.56 84,7C82.64,12.98 81.28,18.96 79.879,25.121C79.018,28.899 78.157,32.677 77.295,36.455C75.926,42.457 74.557,48.46 73.193,54.463C72.094,59.301 70.991,64.138 69.886,68.974C69.464,70.823 69.044,72.673 68.624,74.523C68.039,77.105 67.449,79.686 66.858,82.267C66.684,83.04 66.51,83.812 66.33,84.608C65.114,89.886 65.114,89.886 64,91C62.219,91.087 60.435,91.107 58.652,91.098C57.573,91.094 56.493,91.091 55.381,91.088C54.245,91.08 53.108,91.071 51.938,91.062C50.797,91.058 49.657,91.053 48.482,91.049C45.655,91.037 42.827,91.02 40,91C37.136,80.529 34.542,70.02 32.109,59.441C31.796,58.086 31.482,56.732 31.168,55.377C30.026,50.439 28.888,45.501 27.75,40.562C25.192,29.487 22.635,18.411 20,7C19.67,34.72 19.34,62.44 19,91L0,91L0,0Z" style="fill:rgb(142,186,228);fill-rule:nonzero;"/>
        </g>
        <g transform="matrix(1,0,0,1,749.224854,23.886475)">
            <path d="M0,0C0.958,0.005 1.917,0.01 2.904,0.016C4.456,0.021 4.456,0.021 6.039,0.026C7.127,0.034 8.216,0.042 9.338,0.051C10.976,0.058 10.976,0.058 12.648,0.065C15.357,0.077 18.066,0.093 20.775,0.114C23.305,7.397 25.351,14.753 27.314,22.207C27.983,24.726 28.653,27.244 29.322,29.762C30.192,33.044 31.06,36.327 31.928,39.61C33.115,44.102 34.308,48.592 35.502,53.082C35.815,54.274 36.129,55.465 36.452,56.693C36.742,57.785 37.033,58.877 37.332,60.002C37.587,60.968 37.843,61.933 38.106,62.928C38.575,65.069 38.575,65.069 39.775,66.114C39.986,65.301 40.197,64.489 40.414,63.653C42.397,56.014 44.383,48.377 46.373,40.74C47.396,36.814 48.418,32.887 49.437,28.96C50.419,25.173 51.405,21.386 52.393,17.6C52.77,16.153 53.146,14.705 53.521,13.257C54.045,11.235 54.572,9.214 55.101,7.194C55.401,6.041 55.701,4.889 56.01,3.701C56.775,1.114 56.775,1.114 57.775,0.114C59.483,0.026 61.194,0.007 62.904,0.016C64.456,0.021 64.456,0.021 66.039,0.026C67.127,0.034 68.216,0.042 69.338,0.051C70.976,0.058 70.976,0.058 72.648,0.065C75.357,0.077 78.066,0.093 80.775,0.114C82.859,5.464 84.601,10.764 86.043,16.318C86.249,17.095 86.454,17.871 86.665,18.671C87.335,21.21 87.999,23.749 88.662,26.289C89.128,28.064 89.595,29.839 90.061,31.614C91.035,35.319 92.005,39.025 92.974,42.732C94.216,47.486 95.465,52.238 96.716,56.99C97.679,60.648 98.638,64.307 99.596,67.966C100.056,69.719 100.516,71.472 100.978,73.225C101.62,75.668 102.258,78.112 102.895,80.556C103.087,81.281 103.278,82.006 103.476,82.752C104.221,85.63 104.775,88.127 104.775,91.114L84.775,91.114C83.785,86.968 83.785,86.968 82.775,82.739C82.462,81.435 82.462,81.435 82.142,80.104C81.98,79.419 81.817,78.734 81.65,78.028C81.483,77.326 81.315,76.624 81.142,75.901C80.775,74.114 80.775,74.114 80.775,72.114L57.775,72.114C57.486,73.949 57.198,75.785 56.9,77.676C56.163,82.363 55.097,86.486 53.775,91.114L24.775,91.114C24.115,88.35 23.455,85.586 22.775,82.739C22.566,81.869 22.357,81 22.142,80.104C21.98,79.419 21.817,78.734 21.65,78.028C21.399,76.975 21.399,76.975 21.142,75.901C20.775,74.114 20.775,74.114 20.775,72.114L-2.225,72.114C-2.514,73.949 -2.802,75.785 -3.1,77.676C-3.837,82.363 -4.903,86.486 -6.225,91.114L-26.225,91.114C-24.618,81.155 -22.074,71.526 -19.471,61.793C-19.005,60.04 -18.54,58.287 -18.074,56.534C-17.104,52.884 -16.132,49.235 -15.157,45.586C-13.905,40.901 -12.66,36.214 -11.418,31.527C-10.46,27.918 -9.499,24.31 -8.538,20.702C-8.077,18.973 -7.617,17.243 -7.159,15.514C-6.521,13.11 -5.878,10.707 -5.234,8.304C-5.045,7.587 -4.855,6.869 -4.66,6.129C-3.05,0.156 -3.05,0.156 0,0ZM8.775,19.114C7.771,23.578 6.775,28.044 5.784,32.511C5.447,34.029 5.107,35.547 4.766,37.064C4.274,39.25 3.79,41.438 3.306,43.625C3.077,44.636 3.077,44.636 2.842,45.668C2.043,49.321 1.775,52.317 1.775,56.114L16.775,56.114C16.157,47.866 14.57,40.04 12.713,31.989C12.431,30.746 12.149,29.503 11.859,28.223C11.17,25.185 10.475,22.149 9.775,19.114L8.775,19.114ZM68.775,19.114C67.773,23.739 66.776,28.365 65.784,32.993C65.446,34.566 65.107,36.14 64.766,37.713C64.276,39.976 63.79,42.24 63.306,44.504C63.153,45.205 63,45.907 62.842,46.629C62.147,49.904 61.775,52.743 61.775,56.114L77.775,56.114C75.135,43.904 72.495,31.694 69.775,19.114L68.775,19.114Z" style="fill:rgb(142,185,229);fill-rule:nonzero;"/>
        </g>
        <g transform="matrix(1,0,0,1,379,24)">
            <path d="M0,0C8.848,-0.083 17.696,-0.165 26.812,-0.25C30.969,-0.305 30.969,-0.305 35.21,-0.36C37.438,-0.372 39.666,-0.382 41.895,-0.391C43.591,-0.421 43.591,-0.421 45.323,-0.453C55.747,-0.457 64.592,1.728 72.277,9.066C79.154,16.785 80.353,23.253 80.289,33.441C79.818,39.238 77.881,43.73 74.188,48.188C72.728,50.008 72.728,50.008 73.228,52.63C74.124,56.541 75.552,60.077 77.16,63.734C77.469,64.454 77.779,65.173 78.098,65.914C79.08,68.195 80.07,70.473 81.062,72.75C82.057,75.042 83.05,77.334 84.038,79.629C84.652,81.053 85.27,82.475 85.891,83.896C88,88.776 88,88.776 88,91L56,91C53.936,86.199 51.872,81.398 49.811,76.596C49.111,74.966 48.411,73.337 47.71,71.708C41.228,56.634 41.228,56.634 38.516,50.055C38.214,49.325 37.913,48.595 37.603,47.843C37,46 37,46 37,43C38.013,42.853 38.013,42.853 39.047,42.703C44.632,41.797 44.632,41.797 49.562,39.188C52.116,35.302 52.137,32.898 51.438,28.312C50.963,27.219 50.489,26.126 50,25C42.989,22.394 42.989,22.394 31,22L31,91L0,91L0,0Z" style="fill:rgb(0,84,158);fill-rule:nonzero;"/>
        </g>
        <g transform="matrix(1,0,0,1,976,122)">
            <path d="M0,0L68,0C72.493,11.233 72.493,11.233 73.887,15.535C74.334,16.901 74.334,16.901 74.791,18.295C75.235,19.665 75.235,19.665 75.688,21.062C76.293,22.929 76.901,24.795 77.512,26.66C77.774,27.471 78.037,28.282 78.307,29.117C78.845,30.985 78.845,30.985 80,32C80.328,31.066 80.656,30.132 80.994,29.17C82.208,25.716 83.426,22.263 84.645,18.81C85.172,17.314 85.699,15.817 86.225,14.32C86.979,12.172 87.737,10.025 88.496,7.879C88.732,7.206 88.967,6.533 89.21,5.84C90.886,1.114 90.886,1.114 92,0C93.489,-0.087 94.981,-0.107 96.473,-0.098C97.372,-0.094 98.271,-0.091 99.197,-0.088C100.616,-0.075 100.616,-0.075 102.062,-0.062C103.487,-0.056 103.487,-0.056 104.939,-0.049C107.293,-0.037 109.646,-0.021 112,0C111.473,5.981 108.93,10.726 106.344,16.039C94.287,41.638 86.599,62.565 89,91L70,91C70.17,87.637 70.17,87.637 70.344,84.207C71.159,58.638 64.661,39.549 53,17C46.07,16.505 46.07,16.505 39,16L39,91L20,91L20,16L0,16L0,0Z" style="fill:rgb(142,186,228);fill-rule:nonzero;"/>
        </g>
        <g transform="matrix(1,0,0,1,1028,24)">
            <path d="M0,0L22,0C22.57,1.625 23.141,3.251 23.728,4.925C25.611,10.29 27.495,15.654 29.38,21.019C30.523,24.271 31.666,27.524 32.807,30.778C34.118,34.516 35.432,38.254 36.746,41.992C37.362,43.748 37.362,43.748 37.99,45.54C38.37,46.621 38.75,47.702 39.142,48.816C39.478,49.771 39.813,50.726 40.158,51.709C40.947,53.986 40.947,53.986 42,56C42.33,37.52 42.66,19.04 43,0L60,0L60,91L38,91C37.501,89.558 37.001,88.115 36.487,86.629C34.626,81.254 32.764,75.879 30.902,70.504C30.097,68.183 29.293,65.861 28.49,63.539C27.331,60.192 26.172,56.846 25.012,53.5C24.655,52.469 24.299,51.439 23.932,50.377C23.592,49.397 23.252,48.416 22.901,47.406C22.606,46.554 22.31,45.701 22.006,44.822C20.714,41.199 19.351,37.602 18,34C17.67,52.81 17.34,71.62 17,91L0,91L0,0Z" style="fill:rgb(142,186,229);fill-rule:nonzero;"/>
        </g>
        <g transform="matrix(1,0,0,1,630,122)">
            <path d="M0,0L22,0C22.57,1.625 23.141,3.251 23.728,4.925C25.611,10.29 27.495,15.654 29.38,21.019C30.523,24.271 31.666,27.524 32.807,30.778C34.118,34.516 35.432,38.254 36.746,41.992C37.362,43.748 37.362,43.748 37.99,45.54C38.37,46.621 38.75,47.702 39.142,48.816C39.478,49.771 39.813,50.726 40.158,51.709C40.947,53.986 40.947,53.986 42,56C42.33,37.52 42.66,19.04 43,0L60,0L60,91L38,91C37.465,89.451 36.93,87.902 36.379,86.306C34.394,80.556 32.407,74.807 30.419,69.058C29.56,66.57 28.7,64.082 27.841,61.594C26.606,58.017 25.37,54.44 24.133,50.863C23.749,49.752 23.366,48.64 22.971,47.495C22.431,45.934 22.431,45.934 21.879,44.341C21.564,43.428 21.249,42.516 20.924,41.575C20.01,39.028 19.005,36.513 18,34C17.67,52.81 17.34,71.62 17,91L0,91L0,0Z" style="fill:rgb(142,186,228);fill-rule:nonzero;"/>
        </g>
        <g transform="matrix(1,0,0,1,835,122)">
            <path d="M0,0C45.189,0 45.189,0 52,6C58.769,13.913 58.752,21.887 58,32C56.529,37.819 54.163,41.739 49,45C48.01,45.495 48.01,45.495 47,46C47.928,46.578 48.856,47.155 49.812,47.75C53.521,50.368 55.526,52.203 56.695,56.637C57.706,63.812 58.339,70.939 58.659,78.175C58.829,81.876 59.147,85.39 60,89L62,89L62,91C58.542,91.087 55.084,91.14 51.625,91.188C50.64,91.213 49.655,91.238 48.641,91.264C47.7,91.273 46.759,91.283 45.789,91.293C44.92,91.309 44.05,91.324 43.155,91.341C42.444,91.228 41.733,91.116 41,91C38.687,87.531 38.658,85.835 38.438,81.723C38.363,80.487 38.288,79.252 38.211,77.979C38.107,76.04 38.107,76.04 38,74.062C37.862,71.511 37.717,68.96 37.562,66.41C37.502,65.277 37.441,64.144 37.379,62.977C37.009,60.067 36.739,58.348 35,56C29.185,53.398 29.185,53.398 19,53L19,91L0,91L0,0ZM19,15L19,40C28.332,40.36 28.332,40.36 36,37C39.347,32.357 39.526,28.519 39,23C37.345,19.277 35.491,17.076 32,15C28.723,14.638 28.723,14.638 25.25,14.812C23.188,14.874 21.125,14.936 19,15Z" style="fill:rgb(142,186,229);fill-rule:nonzero;"/>
        </g>
        <g transform="matrix(1,0,0,1,912,24)">
            <path d="M0,0L19,0L19,35L39,35L39,0L58,0L58,91L39,91L39,51L19,51L19,91L0,91L0,0Z" style="fill:rgb(141,186,229);fill-rule:nonzero;"/>
        </g>
        <g transform="matrix(1,0,0,1,568,122)">
            <path d="M0,0L19,0C19.015,2.054 19.029,4.107 19.044,6.223C19.095,13.024 19.161,19.826 19.236,26.627C19.28,30.748 19.32,34.87 19.346,38.992C19.373,42.973 19.413,46.954 19.463,50.935C19.48,52.451 19.491,53.966 19.498,55.481C19.507,57.612 19.535,59.741 19.568,61.871C19.579,63.082 19.59,64.292 19.601,65.539C20.076,69.656 21.11,72.321 23,76C25.888,77.874 27.631,78 31.062,78C35.128,76.616 35.964,74.728 38,71C38.61,67.536 38.61,67.536 38.546,63.801C38.556,63.108 38.567,62.415 38.577,61.7C38.607,59.427 38.608,57.156 38.609,54.883C38.624,53.3 38.641,51.716 38.659,50.133C38.703,45.98 38.723,41.828 38.738,37.675C38.758,33.432 38.8,29.189 38.84,24.945C38.915,16.63 38.963,8.315 39,0L58,0C58.091,9.345 58.164,18.69 58.207,28.036C58.228,32.376 58.256,36.716 58.302,41.057C58.345,45.252 58.369,49.447 58.38,53.642C58.387,55.236 58.401,56.83 58.423,58.423C58.673,77.53 58.673,77.53 52.183,85.127C45.456,91.863 37.79,93.138 28.562,93.438C19.789,93.216 12.294,91.853 6,85.375C-1.357,76.951 -0.403,64.945 -0.293,54.492C-0.287,52.915 -0.283,51.337 -0.28,49.76C-0.269,45.64 -0.239,41.52 -0.206,37.4C-0.175,33.184 -0.162,28.967 -0.146,24.75C-0.114,16.5 -0.062,8.25 0,0Z" style="fill:rgb(142,186,228);fill-rule:nonzero;"/>
        </g>
        <g transform="matrix(1,0,0,1,942.984375,125.289062)">
            <path d="M0,0C4.252,3.285 6.549,6.447 8.016,11.711C8.236,15.418 8.153,18.99 8.016,22.711L-9.984,22.711C-10.644,20.071 -11.304,17.431 -11.984,14.711C-13.362,12 -13.362,12 -15.984,10.711C-19.178,10.433 -21.933,10.723 -24.984,11.711C-27.701,14.51 -27.94,16.356 -28.422,20.211C-27.9,24.389 -26.841,25.682 -23.984,28.711C-21.462,30.246 -21.462,30.246 -18.625,31.359C-17.074,32.032 -17.074,32.032 -15.492,32.719C-13.336,33.623 -11.18,34.527 -9.023,35.43C-1.029,38.901 5.535,42.404 9.984,50.129C11.161,54.217 11.553,57.79 11.516,62.023C11.511,62.768 11.506,63.513 11.5,64.28C11.275,71.438 9.393,76.897 4.594,82.316C-3.999,90.193 -15.13,90.254 -26.056,89.838C-33.463,89.349 -39.042,86.808 -44.355,81.645C-50.091,74.836 -49.251,67.248 -48.984,58.711L-29.984,58.711C-29.561,61.738 -29.138,64.766 -28.715,67.793C-27.955,70.827 -27.511,71.938 -24.984,73.711C-20.285,74.79 -18.069,75.125 -13.547,73.398C-10.902,71.963 -10.902,71.963 -9.984,69.711C-9.672,67.443 -9.672,67.443 -9.609,64.898C-9.56,64.046 -9.511,63.194 -9.461,62.316C-10.226,58.51 -12.011,57.139 -14.984,54.711C-18.184,53.022 -18.184,53.022 -21.672,51.711C-22.917,51.2 -24.162,50.687 -25.406,50.172C-27.177,49.449 -27.177,49.449 -28.984,48.711C-37.082,45.319 -43.671,41.313 -47.152,32.883C-49.376,24.407 -49.014,14.591 -44.984,6.711C-41.188,0.962 -36.626,-1.71 -30.25,-3.879C-20.397,-5.663 -8.559,-5.56 0,0Z" style="fill:rgb(142,186,229);fill-rule:nonzero;"/>
        </g>
        <g transform="matrix(1,0,0,1,973,24)">
            <path d="M0,0L52,0L52,16L19,16L19,36L50,36L50,52L19,52L19,75L53,75L53,91L0,91L0,0Z" style="fill:rgb(142,185,229);fill-rule:nonzero;"/>
        </g>
        <g transform="matrix(1,0,0,1,900.3125,28.1875)">
            <path d="M0,0C7.832,8.196 7.807,16.977 7.688,27.812L-11.312,27.812C-11.653,24.75 -11.653,24.75 -12,21.625C-12.751,16.112 -12.751,16.112 -15.5,11.438C-18.294,9.51 -18.294,9.51 -21.938,9.812C-25.876,10.881 -25.876,10.881 -28.312,13.812C-33.799,29.053 -33.919,52.342 -29.312,67.812C-27.616,71.466 -27.616,71.466 -24.445,73.695C-20.464,74.175 -18.878,74.194 -15.438,71.875C-11.159,65.708 -11.134,59.202 -10.312,51.812L8.688,51.812C9.199,62.427 8.359,72.715 1.562,81.375C-4.687,87.598 -11.598,89.183 -20.25,89.312C-29.031,89.181 -36.856,87.755 -43.25,81.375C-51.793,70.435 -51.494,55.291 -51.5,42.125C-51.512,40.826 -51.524,39.528 -51.537,38.189C-51.557,24.812 -50.813,10.603 -41.176,0.32C-30.155,-8.598 -11.353,-7.497 0,0Z" style="fill:rgb(142,186,229);fill-rule:nonzero;"/>
        </g>
        <g transform="matrix(1,0,0,1,956,122)">
            <rect x="0" y="0" width="19" height="91" style="fill:rgb(141,186,228);fill-rule:nonzero;"/>
        </g>
    </g>
</svg>
