<?xml version="1.0" encoding="UTF-8" standalone="no"?><!DOCTYPE svg PUBLIC "-//W3C//DTD SVG 1.1//EN" "http://www.w3.org/Graphics/SVG/1.1/DTD/svg11.dtd"><svg width="100%" height="100%" viewBox="0 0 2039 1789" version="1.1" xmlns="http://www.w3.org/2000/svg" xmlns:xlink="http://www.w3.org/1999/xlink" xml:space="preserve" xmlns:serif="http://www.serif.com/" style="fill-rule:evenodd;clip-rule:evenodd;stroke-linejoin:round;stroke-miterlimit:2;"><path d="M659.66,2.976c4.719,-0.018 9.438,-0.042 14.157,-0.065c9.336,-0.044 18.671,-0.083 28.007,-0.119c7.764,-0.031 15.527,-0.063 23.291,-0.097c84.99,-0.369 169.98,-0.593 254.97,-0.761c12.383,-0.025 24.767,-0.05 37.15,-0.076c2.074,-0.004 4.148,-0.009 6.222,-0.013c43.741,-0.092 87.481,-0.26 131.222,-0.473c46.398,-0.226 92.795,-0.375 139.193,-0.419c6.453,-0.006 12.905,-0.013 19.358,-0.021c1.27,-0.001 2.54,-0.003 3.848,-0.004c20.439,-0.026 40.877,-0.134 61.315,-0.273c20.53,-0.138 41.059,-0.188 61.59,-0.15c12.199,0.02 24.393,-0.026 36.591,-0.168c8.148,-0.088 16.293,-0.09 24.442,-0.02c4.645,0.037 9.281,0.036 13.925,-0.071c26.808,-0.583 26.808,-0.583 33.88,5.381c4.682,5.711 7.593,11.946 10.122,18.842c1.367,3.593 3.148,6.64 5.179,9.896c1.106,1.919 2.212,3.838 3.316,5.758c1.259,2.185 2.518,4.37 3.777,6.555c0.625,1.085 1.25,2.17 1.894,3.288c3.128,5.429 6.26,10.855 9.391,16.282c1.25,2.167 2.5,4.333 3.75,6.5c0.619,1.073 1.237,2.145 1.875,3.25c5.625,9.75 5.625,9.75 7.5,13c1.249,2.165 2.498,4.33 3.748,6.495c3.139,5.441 6.277,10.882 9.412,16.325c6.045,10.492 12.106,20.975 18.215,31.43c6.747,11.547 13.433,23.129 20.109,34.718c3.128,5.429 6.26,10.855 9.391,16.282c1.25,2.167 2.5,4.333 3.75,6.5c0.619,1.072 1.237,2.145 1.875,3.25c50.625,87.75 50.625,87.75 52.5,91c1.249,2.165 2.498,4.33 3.748,6.495c3.139,5.441 6.277,10.882 9.412,16.325c6.022,10.452 12.062,20.893 18.152,31.305c5.422,9.27 10.765,18.583 16.082,27.913c5.201,9.124 10.461,18.213 15.764,27.278c6.154,10.524 12.24,21.087 18.325,31.651c3.128,5.429 6.26,10.855 9.391,16.282c1.25,2.167 2.5,4.333 3.75,6.5c0.619,1.072 1.237,2.145 1.875,3.25c35.625,61.75 35.625,61.75 37.5,65c1.249,2.165 2.498,4.33 3.748,6.495c3.139,5.441 6.277,10.882 9.412,16.325c6.045,10.492 12.106,20.975 18.215,31.43c6.747,11.547 13.433,23.129 20.109,34.718c3.128,5.429 6.26,10.855 9.391,16.282c1.25,2.167 2.5,4.333 3.75,6.5c0.619,1.072 1.237,2.145 1.875,3.25c50.625,87.75 50.625,87.75 52.5,91c1.249,2.165 2.498,4.33 3.748,6.495c3.139,5.441 6.277,10.882 9.412,16.325c1.259,2.185 2.518,4.37 3.777,6.555c0.618,1.074 1.237,2.148 1.874,3.255c3.054,5.297 6.124,10.584 9.231,15.851c24.316,41.231 51.924,90.323 39.953,139.703c-3.677,14.2 -8.604,27.703 -14.621,41.066c-0.434,0.968 -0.868,1.937 -1.315,2.935c-7.285,16.077 -15.763,31.385 -24.663,46.603c-2.596,4.44 -5.158,8.898 -7.723,13.355c-1.858,3.228 -3.72,6.453 -5.583,9.677c-3.115,5.391 -6.227,10.783 -9.338,16.176c-1.874,3.249 -3.749,6.497 -5.623,9.746c-2.515,4.358 -5.027,8.718 -7.539,13.078c-6.617,11.484 -13.261,22.952 -19.948,34.396c-6.166,10.56 -12.272,21.155 -18.376,31.752c-3.128,5.429 -6.26,10.855 -9.391,16.282c-1.25,2.167 -2.5,4.333 -3.75,6.5c-17.5,30.333 -35,60.667 -52.5,91c-0.619,1.073 -1.238,2.145 -1.875,3.25c-1.249,2.165 -2.498,4.33 -3.748,6.495c-3.139,5.441 -6.277,10.882 -9.412,16.325c-6.022,10.452 -12.062,20.893 -18.152,31.305c-5.075,8.678 -10.085,17.391 -15.062,26.125c-5.54,9.721 -11.134,19.409 -16.783,29.067c-6.154,10.524 -12.24,21.087 -18.325,31.651c-3.128,5.429 -6.26,10.855 -9.391,16.282c-1.25,2.167 -2.5,4.333 -3.75,6.5c-12.5,21.667 -25,43.333 -37.5,65c-0.619,1.073 -1.238,2.145 -1.875,3.25c-1.249,2.165 -2.498,4.33 -3.748,6.495c-3.139,5.441 -6.277,10.882 -9.412,16.325c-6.617,11.484 -13.261,22.952 -19.948,34.396c-6.166,10.56 -12.272,21.155 -18.376,31.752c-3.128,5.429 -6.26,10.855 -9.391,16.282c-1.25,2.167 -2.5,4.333 -3.75,6.5c-22.5,39 -45,78 -67.5,117c-0.619,1.073 -1.238,2.145 -1.875,3.25c-1.249,2.165 -2.498,4.33 -3.748,6.495c-3.139,5.441 -6.277,10.882 -9.412,16.325c-6.343,11.009 -12.7,22.01 -19.09,32.992c-0.601,1.036 -1.203,2.072 -1.823,3.139c-0.551,0.945 -1.102,1.891 -1.67,2.865c-0.486,0.835 -0.972,1.669 -1.472,2.53c-1.161,1.904 -1.161,1.904 -2.161,2.904c-2.02,0.099 -4.043,0.126 -6.065,0.126c-0.967,0.002 -0.967,0.002 -1.954,0.005c-2.191,0.004 -4.383,0.001 -6.574,-0.002c-1.581,0.001 -3.163,0.003 -4.744,0.005c-4.386,0.005 -8.772,0.003 -13.159,0.001c-4.757,-0.002 -9.514,0.003 -14.27,0.006c-8.351,0.005 -16.702,0.007 -25.053,0.006c-12.419,-0.002 -24.838,0.003 -37.258,0.008c-23.474,0.01 -46.948,0.012 -70.422,0.013c-18.135,0 -36.27,0.003 -54.404,0.006c-5.215,0.001 -10.429,0.002 -15.644,0.003c-1.296,0 -2.593,0 -3.928,0.001c-36.491,0.006 -72.982,0.01 -109.474,0.01c-1.391,-0 -2.782,-0 -4.173,-0c-6.281,-0 -12.561,-0 -18.842,-0c-2.801,-0 -5.601,-0 -8.402,-0c-1.402,-0 -2.804,-0 -4.205,-0c-44.277,-0.001 -88.554,0.007 -132.832,0.021c-11.145,0.004 -22.289,0.007 -33.434,0.01c-0.686,0 -1.373,0 -2.08,0.001c-21.168,0.006 -42.337,0.01 -63.505,0.011c-0.998,0 -0.998,0 -2.016,0c-15.261,0.001 -30.521,0.001 -45.782,0.001c-5.222,-0 -10.445,-0 -15.667,-0c-1.286,-0 -2.572,-0 -3.897,-0c-20.675,-0 -41.351,0.006 -62.026,0.015c-20.799,0.008 -41.598,0.009 -62.398,0.003c-12.348,-0.004 -24.696,-0.002 -37.044,0.008c-8.263,0.006 -16.525,0.005 -24.788,-0.002c-4.699,-0.004 -9.397,-0.005 -14.096,0.003c-24.548,0.04 -48.916,-0.286 -73.179,-4.505c-1.256,-0.216 -2.513,-0.432 -3.807,-0.655c-31.635,-5.68 -57.317,-18.953 -77.88,-44.095c-0.891,-1.033 -1.783,-2.066 -2.676,-3.098c-16.294,-19.126 -29.214,-40.836 -41.498,-62.668c-3.069,-5.434 -6.201,-10.832 -9.327,-16.234c-1.249,-2.164 -2.498,-4.328 -3.746,-6.492c-0.619,-1.072 -1.237,-2.144 -1.875,-3.249c-1.889,-3.276 -3.777,-6.552 -5.665,-9.829c-6.022,-10.452 -12.062,-20.893 -18.152,-31.305c-5.422,-9.27 -10.765,-18.583 -16.082,-27.913c-5.201,-9.124 -10.461,-18.213 -15.764,-27.278c-6.154,-10.524 -12.24,-21.087 -18.325,-31.651c-3.128,-5.429 -6.26,-10.855 -9.391,-16.282c-1.25,-2.167 -2.5,-4.333 -3.75,-6.5c-0.619,-1.073 -1.238,-2.145 -1.875,-3.25c-35.625,-61.75 -35.625,-61.75 -37.5,-65c-1.249,-2.165 -2.498,-4.33 -3.748,-6.495c-3.139,-5.441 -6.277,-10.882 -9.412,-16.325c-6.045,-10.492 -12.106,-20.975 -18.215,-31.43c-6.747,-11.547 -13.433,-23.129 -20.109,-34.718c-3.128,-5.429 -6.26,-10.855 -9.391,-16.282c-1.25,-2.167 -2.5,-4.333 -3.75,-6.5c-0.619,-1.073 -1.238,-2.145 -1.875,-3.25c-50.625,-87.75 -50.625,-87.75 -52.5,-91c-1.249,-2.165 -2.498,-4.33 -3.748,-6.495c-3.139,-5.441 -6.277,-10.882 -9.412,-16.325c-6.022,-10.452 -12.062,-20.893 -18.152,-31.305c-5.422,-9.27 -10.765,-18.583 -16.082,-27.913c-5.201,-9.124 -10.461,-18.213 -15.764,-27.278c-6.154,-10.524 -12.24,-21.087 -18.325,-31.651c-3.128,-5.429 -6.26,-10.855 -9.391,-16.282c-1.25,-2.167 -2.5,-4.333 -3.75,-6.5c-0.619,-1.073 -1.237,-2.145 -1.875,-3.25c-35.625,-61.75 -35.625,-61.75 -37.5,-65c-1.249,-2.165 -2.498,-4.33 -3.748,-6.495c-3.139,-5.441 -6.277,-10.882 -9.412,-16.325c-6.045,-10.492 -12.106,-20.974 -18.215,-31.43c-4.776,-8.181 -9.549,-16.363 -14.297,-24.561c-0.996,-1.718 -1.995,-3.435 -2.994,-5.152c-0.601,-1.04 -1.203,-2.079 -1.822,-3.15c-0.534,-0.921 -1.068,-1.842 -1.618,-2.79c-1.268,-2.346 -1.268,-2.346 -2.268,-5.346c1.386,-2.673 1.386,-2.673 3.465,-5.863c0.752,-1.175 1.501,-2.352 2.25,-3.53c0.384,-0.601 0.768,-1.201 1.163,-1.82c3.069,-4.886 5.841,-9.956 8.685,-14.975c1.405,-2.471 2.812,-4.94 4.219,-7.41c0.353,-0.62 0.706,-1.24 1.069,-1.879c3.547,-6.23 7.126,-12.441 10.712,-18.648c0.614,-1.064 1.229,-2.127 1.862,-3.223c1.239,-2.145 2.478,-4.289 3.717,-6.434c3.122,-5.404 6.24,-10.811 9.359,-16.218c1.25,-2.167 2.5,-4.333 3.75,-6.5c0.928,-1.609 49.688,-86.125 97.5,-169c0.619,-1.073 1.238,-2.145 1.875,-3.25c1.249,-2.165 2.498,-4.33 3.748,-6.495c3.139,-5.441 6.277,-10.882 9.412,-16.325c6.022,-10.452 12.062,-20.893 18.152,-31.305c5.422,-9.271 10.766,-18.584 16.083,-27.915c5.174,-9.077 10.411,-18.115 15.691,-27.131c4.481,-7.664 8.894,-15.365 13.289,-23.078c5.513,-9.675 11.084,-19.313 16.711,-28.922c4.481,-7.664 8.894,-15.365 13.289,-23.078c5.54,-9.721 11.134,-19.409 16.783,-29.067c6.154,-10.524 12.24,-21.087 18.325,-31.651c3.128,-5.429 6.26,-10.855 9.391,-16.282c1.25,-2.167 2.5,-4.333 3.75,-6.5c42.5,-73.667 85,-147.333 127.5,-221c0.929,-1.61 0.929,-1.61 1.876,-3.252c1.246,-2.159 2.491,-4.317 3.738,-6.476c3.196,-5.536 6.385,-11.076 9.562,-16.624c15.874,-27.692 32.54,-54.555 54.709,-77.716c1.224,-1.285 2.429,-2.588 3.631,-3.894c37.949,-40.058 103.659,-36.623 154.394,-36.81Zm852.903,3.834c-0.82,0.086 -1.64,0.172 -2.484,0.261c-106.677,11.279 -212.356,35.711 -375.078,87.177c-1.301,0.432 -1.301,0.432 -2.628,0.874c-71.595,23.817 -141.566,52.221 -210.372,83.126c-0.798,0.359 -1.597,0.717 -2.419,1.087c-19.601,8.813 -39.033,17.934 -58.343,27.365c-4.667,2.277 -9.352,4.515 -14.044,6.741c-20.319,9.641 -40.459,19.687 -60.303,30.272c-2.887,1.533 -5.778,3.055 -8.672,4.575c-15.434,8.107 -30.791,16.299 -45.926,24.956c-5.366,3.064 -10.794,6.006 -16.23,8.941c-9.739,5.274 -19.308,10.814 -28.855,16.426c-5.306,3.118 -10.638,6.188 -15.978,9.249c-12.204,7 -24.275,14.186 -36.256,21.56c-3.135,1.928 -6.275,3.849 -9.415,5.77c-26.159,16.021 -51.92,32.645 -77.541,49.51c-1.88,1.237 -3.762,2.473 -5.644,3.707c-12.573,8.247 -24.987,16.683 -37.268,25.358c-2.809,1.98 -5.632,3.939 -8.458,5.895c-10.917,7.56 -21.756,15.212 -32.492,23.026c-2.171,1.574 -4.35,3.137 -6.531,4.696c-9.028,6.462 -17.911,13.089 -26.722,19.844c-5.897,4.515 -11.846,8.95 -17.84,13.336c-7.253,5.314 -14.37,10.768 -21.402,16.37c-1.684,1.337 -3.376,2.663 -5.071,3.986c-7.708,6.019 -15.319,12.149 -22.898,18.328c-2.988,2.435 -5.99,4.851 -9.004,7.254c-8.056,6.432 -15.998,12.99 -23.853,19.666c-3.393,2.88 -6.817,5.716 -10.272,8.522c-5.992,4.882 -11.854,9.908 -17.704,14.958c-1.898,1.638 -3.798,3.274 -5.699,4.909c-6.667,5.748 -13.263,11.557 -19.754,17.504c-2.092,1.905 -4.206,3.776 -6.344,5.629c-4.394,3.817 -8.663,7.769 -12.938,11.719c-2.312,2.122 -4.663,4.192 -7.031,6.25c-3.95,3.444 -7.784,6.996 -11.594,10.594c-1.406,1.324 -2.812,2.649 -4.219,3.973c-1.065,1.004 -1.065,1.004 -2.152,2.028c-2.047,1.922 -4.102,3.836 -6.16,5.746c-7.624,7.085 -15.101,14.283 -22.391,21.713c-3.056,3.099 -6.149,6.081 -9.449,8.92c-4.788,4.13 -9.233,8.579 -13.691,13.059c-1.217,1.211 -1.217,1.211 -2.459,2.447c-3.609,3.615 -7.146,7.244 -10.475,11.119c-4.836,5.623 -10.194,10.731 -15.477,15.93c-4.342,4.3 -8.531,8.65 -12.488,13.309c-1.608,1.836 -3.297,3.55 -5.039,5.258c-2.945,2.9 -5.655,5.936 -8.352,9.066c-2.825,3.2 -5.736,6.314 -8.648,9.434c-4.591,4.926 -9.123,9.882 -13.5,15c-0.876,1.022 -1.753,2.044 -2.629,3.066c-1.516,1.768 -3.031,3.537 -4.545,5.306c-3.777,4.413 -7.579,8.805 -11.389,13.19c-8.257,9.52 -16.442,19.057 -24.179,29.007c-2.929,3.761 -5.916,7.465 -8.947,11.144c-6.596,8.016 -12.81,16.263 -18.921,24.654c-2.549,3.498 -5.147,6.953 -7.779,10.389c-5.431,7.123 -10.67,14.39 -15.797,21.734c-0.79,1.126 -1.585,2.247 -2.388,3.363c-1.126,1.571 -2.227,3.161 -3.326,4.751c-0.969,1.379 -0.969,1.379 -1.958,2.786c-1.442,2.563 -1.442,2.563 -0.471,5.236c1.859,3.322 3.955,6.448 6.14,9.56c0.486,0.698 0.971,1.396 1.472,2.115c1.564,2.238 3.138,4.469 4.716,6.698c0.757,1.071 0.757,1.071 1.53,2.164c15.037,21.193 30.95,41.78 47.47,61.836c1.458,1.792 2.917,3.583 4.375,5.375c5.134,6.272 10.369,12.455 15.625,18.625c0.5,0.587 0.999,1.175 1.514,1.78c5.739,6.744 11.523,13.434 17.474,19.993c1.859,2.058 3.691,4.135 5.512,6.227c3.356,3.851 6.769,7.649 10.191,11.441c1.49,1.651 2.977,3.305 4.461,4.961c11.813,13.218 11.813,13.218 24.187,25.904c1.579,1.61 3.023,3.273 4.474,4.998c5.791,6.65 12.133,12.785 18.371,19.012c1.383,1.384 2.767,2.768 4.15,4.153c2.889,2.89 5.78,5.779 8.672,8.666c3.689,3.684 7.374,7.372 11.058,11.062c2.852,2.856 5.707,5.71 8.563,8.563c1.359,1.358 2.717,2.717 4.075,4.077c9.154,9.216 9.154,9.216 18.811,17.895c2.856,2.434 5.409,5.171 8.019,7.861c2.694,2.625 5.506,5.073 8.346,7.537c4.141,3.646 8.118,7.47 12.123,11.264c3.984,3.758 8.034,7.417 12.169,11.007c2.421,2.115 4.782,4.292 7.143,6.474c3.623,3.308 7.304,6.485 11.125,9.562c3.995,3.222 7.808,6.569 11.562,10.062c4.53,4.21 9.203,8.176 14.02,12.055c3.553,2.915 7.018,5.924 10.48,8.945c5.1,4.443 10.246,8.809 15.504,13.066c2.33,1.893 4.649,3.796 6.961,5.711c7.199,5.96 14.426,11.869 21.801,17.611c4.424,3.452 8.77,6.991 13.11,10.549c5.887,4.815 11.883,9.446 17.99,13.977c5.042,3.746 10.003,7.586 14.947,11.461c8.473,6.626 17.104,13.02 25.788,19.366c2.414,1.769 4.82,3.547 7.224,5.329c8.215,6.086 16.472,12.099 24.844,17.968c4.296,3.014 8.559,6.068 12.801,9.159c9.764,7.107 19.689,13.951 29.696,20.711c2.922,1.974 5.842,3.952 8.761,5.931c4.69,3.179 9.382,6.355 14.075,9.529c1.891,1.279 3.781,2.559 5.671,3.84c10.222,6.926 20.483,13.744 30.991,20.229c3.921,2.423 7.792,4.916 11.65,7.438c15.673,10.18 31.538,20.024 47.524,29.705c3.317,2.013 6.627,4.036 9.937,6.061c14.521,8.875 29.147,17.535 43.927,25.974c3.381,1.932 6.756,3.873 10.131,5.815c31.83,18.301 64.052,35.897 96.698,52.699c5.157,2.654 10.301,5.329 15.419,8.057c23.328,12.428 47.116,24.106 71.052,35.314c1.431,0.672 2.863,1.344 4.294,2.017c76.976,36.116 155.628,68.587 236.005,96.356c3.157,1.091 6.311,2.189 9.463,3.293c44.215,15.484 89.051,28.991 134.237,41.334c0.87,0.238 1.74,0.476 2.636,0.721c88.98,24.318 188.376,51.273 281.364,50.279c46.351,-82.761 74.036,-179.766 175,-912c-0.009,-0.978 -0.017,-1.956 -0.026,-2.964c-0.781,-85.601 -5.456,-171.247 -63.974,-545.036c-0.392,-1.631 -0.392,-1.631 -0.792,-3.296c-11.708,-48.632 -24.856,-96.815 -40.439,-144.354c-0.765,-2.336 -1.527,-4.674 -2.288,-7.012c-18.607,-57.106 -39.985,-113.39 -66.482,-167.338c-11.257,-0.214 -22.247,0.36 -33.438,1.563Z" style="fill:#231f20;fill-rule:nonzero;"/><path d="M659.747,3.125c4.732,0.003 9.463,0.001 14.195,-0.001c8.275,-0.002 16.55,-0 24.825,0.004c12.304,0.006 24.609,0.006 36.913,0.005c20.702,-0.001 41.404,0.002 62.107,0.008c20.489,0.006 40.978,0.01 61.466,0.011c1.913,0 1.913,0 3.865,0c6.477,0 12.955,0.001 19.432,0.001c45.843,0.002 91.686,0.009 137.529,0.018c11.102,0.002 22.203,0.005 33.305,0.007c0.689,0 1.377,0 2.087,0c32.036,0.006 64.073,0.01 96.109,0.013c2.081,0 4.162,0 6.243,0.001c13.791,0.001 27.583,0.003 41.374,0.004c28.093,0.003 56.185,0.005 84.278,0.008c1.292,0 2.583,0 3.914,0c86.204,0.009 172.409,0.025 258.613,0.042l0,2c-0.869,0.059 -1.739,0.119 -2.635,0.18c-110.302,7.754 -219.399,32.058 -682.343,202.365c-3.022,1.454 -6.049,2.899 -9.077,4.341c-21.894,10.435 -43.654,21.162 -65.055,32.578c-2.887,1.533 -5.778,3.055 -8.672,4.575c-15.434,8.107 -30.791,16.299 -45.926,24.956c-5.366,3.064 -10.794,6.006 -16.23,8.941c-9.739,5.274 -19.308,10.814 -28.855,16.426c-5.306,3.118 -10.638,6.188 -15.978,9.249c-12.204,7 -24.275,14.186 -36.256,21.56c-3.135,1.928 -6.275,3.849 -9.415,5.77c-26.159,16.021 -51.92,32.645 -77.541,49.51c-1.88,1.237 -3.762,2.473 -5.644,3.707c-12.573,8.247 -24.987,16.683 -37.268,25.358c-2.809,1.98 -5.632,3.939 -8.458,5.895c-10.917,7.56 -21.756,15.212 -32.492,23.026c-2.171,1.574 -4.35,3.137 -6.531,4.696c-9.028,6.462 -17.911,13.089 -26.722,19.844c-5.897,4.515 -11.846,8.95 -17.84,13.336c-7.253,5.314 -14.37,10.768 -21.402,16.37c-1.684,1.337 -3.376,2.663 -5.071,3.986c-7.708,6.019 -15.319,12.149 -22.898,18.328c-2.988,2.435 -5.99,4.851 -9.004,7.254c-8.056,6.432 -15.998,12.99 -23.853,19.666c-3.393,2.88 -6.817,5.716 -10.272,8.522c-5.992,4.882 -11.854,9.908 -17.704,14.958c-1.898,1.638 -3.798,3.274 -5.699,4.909c-6.667,5.748 -13.263,11.557 -19.754,17.504c-2.092,1.905 -4.206,3.776 -6.344,5.629c-4.394,3.817 -8.663,7.769 -12.938,11.719c-2.312,2.122 -4.663,4.192 -7.031,6.25c-3.95,3.444 -7.784,6.996 -11.594,10.594c-1.406,1.324 -2.812,2.649 -4.219,3.973c-1.065,1.004 -1.065,1.004 -2.152,2.028c-2.047,1.922 -4.102,3.836 -6.16,5.746c-7.624,7.085 -15.101,14.283 -22.391,21.713c-3.067,3.109 -6.171,6.101 -9.48,8.951c-4.599,3.967 -8.878,8.223 -13.16,12.527c-0.764,0.76 -1.528,1.52 -2.314,2.303c-3.48,3.486 -6.878,6.995 -10.088,10.732c-4.849,5.632 -10.215,10.752 -15.508,15.961c-4.342,4.3 -8.531,8.65 -12.488,13.309c-1.608,1.836 -3.297,3.55 -5.039,5.258c-2.945,2.9 -5.655,5.936 -8.352,9.066c-2.825,3.2 -5.736,6.314 -8.648,9.434c-4.591,4.926 -9.123,9.882 -13.5,15c-0.876,1.022 -1.753,2.044 -2.629,3.066c-1.516,1.768 -3.031,3.537 -4.545,5.306c-3.777,4.413 -7.579,8.805 -11.389,13.19c-8.257,9.52 -16.442,19.057 -24.179,29.007c-2.929,3.761 -5.916,7.465 -8.947,11.144c-6.596,8.016 -12.81,16.263 -18.921,24.654c-2.085,2.862 -4.191,5.704 -6.344,8.516c-9.196,12.021 -17.614,24.555 -26.047,37.117c-0.66,-0.33 -1.32,-0.66 -2,-1c8.194,-14.392 16.417,-28.765 24.78,-43.061c6.155,-10.526 12.243,-21.091 18.329,-31.657c3.128,-5.429 6.26,-10.855 9.391,-16.282c1.25,-2.167 2.5,-4.333 3.75,-6.5c61.875,-107.25 123.75,-214.5 337.5,-585c0.619,-1.073 1.238,-2.145 1.875,-3.25c1.249,-2.165 2.498,-4.33 3.748,-6.495c3.139,-5.441 6.277,-10.882 9.412,-16.325c6.589,-11.436 13.209,-22.854 19.873,-34.246c4.172,-7.145 8.286,-14.322 12.38,-21.511c58.572,-102.798 58.572,-102.798 111.635,-117.606c34.743,-9.164 70.416,-9.223 106.073,-9.189Z" style="fill:#ce152c;fill-rule:nonzero;"/><path d="M0,895.247l2,0c1.306,1.642 1.306,1.642 2.801,3.961c0.558,0.855 1.116,1.709 1.691,2.59c0.601,0.932 1.202,1.864 1.821,2.824c17.282,26.343 36.664,51.316 56.688,75.625c1.458,1.792 2.917,3.583 4.375,5.375c5.134,6.272 10.369,12.455 15.625,18.625c0.5,0.587 0.999,1.175 1.514,1.78c5.739,6.744 11.523,13.434 17.474,19.993c1.859,2.058 3.691,4.135 5.512,6.227c3.356,3.851 6.769,7.649 10.191,11.441c1.49,1.651 2.977,3.305 4.461,4.961c11.813,13.217 11.813,13.217 24.186,25.903c1.584,1.615 3.032,3.282 4.488,5.012c5.72,6.568 11.978,12.63 18.138,18.78c1.361,1.362 2.722,2.724 4.083,4.086c2.842,2.843 5.685,5.685 8.53,8.525c3.629,3.623 7.253,7.251 10.876,10.88c2.806,2.81 5.615,5.617 8.424,8.424c1.337,1.336 2.673,2.673 4.008,4.01c9.061,9.115 9.061,9.115 18.619,17.702c2.858,2.437 5.414,5.176 8.027,7.869c2.694,2.625 5.506,5.073 8.346,7.537c4.141,3.646 8.118,7.47 12.123,11.264c3.984,3.758 8.034,7.417 12.169,11.007c2.421,2.115 4.782,4.292 7.143,6.474c3.623,3.308 7.304,6.485 11.125,9.562c3.995,3.222 7.808,6.569 11.562,10.062c4.53,4.21 9.203,8.176 14.02,12.055c3.553,2.915 7.018,5.924 10.48,8.945c5.1,4.443 10.246,8.809 15.504,13.066c2.33,1.893 4.649,3.796 6.961,5.711c7.199,5.96 14.426,11.869 21.801,17.611c4.424,3.452 8.77,6.991 13.11,10.549c5.887,4.815 11.883,9.446 17.99,13.977c5.042,3.746 10.003,7.586 14.947,11.461c8.473,6.626 17.104,13.02 25.788,19.366c2.414,1.769 4.82,3.547 7.224,5.329c8.215,6.086 16.472,12.099 24.844,17.968c4.296,3.014 8.559,6.068 12.801,9.159c9.764,7.107 19.689,13.951 29.696,20.711c2.922,1.974 5.842,3.952 8.761,5.931c4.69,3.179 9.382,6.355 14.075,9.529c1.891,1.279 3.781,2.559 5.671,3.84c10.222,6.926 20.483,13.744 30.991,20.229c3.921,2.423 7.792,4.916 11.65,7.438c15.673,10.18 31.538,20.024 47.524,29.705c3.317,2.013 6.627,4.036 9.937,6.061c14.521,8.875 29.147,17.535 43.927,25.974c3.381,1.932 6.756,3.873 10.131,5.815c31.83,18.301 64.052,35.897 96.698,52.699c5.157,2.654 10.301,5.329 15.419,8.057c23.328,12.428 47.116,24.106 71.052,35.314c1.431,0.672 2.863,1.344 4.294,2.017c76.976,36.116 155.628,68.587 236.005,96.356c3.157,1.091 6.311,2.189 9.463,3.293c44.215,15.484 89.051,28.991 134.237,41.334c1.305,0.357 1.305,0.357 2.636,0.721c88.865,24.287 180.222,43.035 272.194,49.985c3.411,0.316 6.783,0.784 10.17,1.294l0,1c-88.406,0.034 -176.812,0.066 -265.217,0.085c-1.964,0 -1.964,0 -3.967,0.001c-27.757,0.006 -55.515,0.011 -83.272,0.016c-13.945,0.002 -27.889,0.005 -41.834,0.008c-2.103,0 -4.207,0.001 -6.31,0.001c-32.369,0.006 -64.738,0.014 -97.107,0.027c-0.695,0 -1.391,0.001 -2.107,0.001c-11.21,0.004 -22.421,0.009 -33.631,0.014c-32.31,0.013 -64.62,0.025 -96.931,0.031c-0.665,0 -1.33,0 -2.016,0c-13.951,0.002 -27.901,0.004 -41.852,0.005c-6.534,0.001 -13.069,0.001 -19.603,0.002c-1.286,0 -2.572,0 -3.897,0c-20.678,0.002 -41.357,0.012 -62.035,0.024c-20.803,0.012 -41.605,0.016 -62.408,0.013c-12.35,-0.002 -24.7,0.003 -37.05,0.015c-8.264,0.008 -16.528,0.008 -24.792,0.002c-4.7,-0.003 -9.399,-0.003 -14.099,0.006c-24.551,0.045 -48.919,-0.28 -73.185,-4.5c-1.256,-0.216 -2.513,-0.432 -3.807,-0.655c-31.635,-5.68 -57.317,-18.953 -77.88,-44.095c-0.891,-1.033 -1.783,-2.066 -2.676,-3.098c-16.294,-19.126 -29.214,-40.836 -41.498,-62.668c-3.069,-5.434 -6.201,-10.832 -9.327,-16.234c-1.249,-2.164 -2.498,-4.328 -3.746,-6.492c-0.619,-1.072 -1.237,-2.144 -1.875,-3.249c-1.889,-3.276 -3.777,-6.552 -5.665,-9.829c-6.022,-10.452 -12.062,-20.893 -18.152,-31.305c-5.422,-9.27 -10.765,-18.583 -16.082,-27.913c-5.201,-9.124 -10.461,-18.213 -15.764,-27.278c-6.154,-10.524 -12.24,-21.087 -18.325,-31.651c-3.128,-5.429 -6.26,-10.855 -9.391,-16.282c-1.25,-2.167 -2.5,-4.333 -3.75,-6.5c-0.619,-1.072 -1.238,-2.145 -1.875,-3.25c-35.625,-61.75 -35.625,-61.75 -37.5,-65c-1.249,-2.165 -2.498,-4.33 -3.748,-6.495c-3.139,-5.441 -6.277,-10.882 -9.412,-16.325c-6.045,-10.492 -12.106,-20.975 -18.215,-31.43c-6.747,-11.547 -13.433,-23.129 -20.109,-34.718c-3.128,-5.429 -6.26,-10.855 -9.391,-16.282c-1.25,-2.167 -2.5,-4.333 -3.75,-6.5c-0.619,-1.072 -1.238,-2.145 -1.875,-3.25c-50.625,-87.75 -50.625,-87.75 -52.5,-91c-1.249,-2.165 -2.498,-4.33 -3.748,-6.495c-3.139,-5.441 -6.277,-10.882 -9.412,-16.325c-6.022,-10.452 -12.062,-20.893 -18.152,-31.305c-5.422,-9.27 -10.765,-18.583 -16.082,-27.913c-5.201,-9.124 -10.461,-18.213 -15.764,-27.278c-6.154,-10.524 -12.24,-21.087 -18.325,-31.651c-3.128,-5.429 -6.26,-10.855 -9.391,-16.282c-1.25,-2.167 -2.5,-4.333 -3.75,-6.5c-0.619,-1.072 -1.237,-2.145 -1.875,-3.25c-35.625,-61.75 -35.625,-61.75 -37.5,-65c-1.249,-2.165 -2.498,-4.33 -3.748,-6.495c-3.139,-5.441 -6.277,-10.882 -9.412,-16.325c-6.045,-10.492 -12.106,-20.974 -18.215,-31.43c-4.776,-8.181 -9.549,-16.363 -14.297,-24.561c-0.996,-1.718 -1.995,-3.435 -2.994,-5.152c-0.601,-1.04 -1.203,-2.079 -1.822,-3.15c-0.534,-0.921 -1.068,-1.842 -1.618,-2.79c-1.268,-2.346 -1.268,-2.346 -2.268,-5.346Z" style="fill:#636469;fill-rule:nonzero;"/></svg>